<?xml version="1.0" encoding="UTF-8" standalone="no"?>
<svg
   xmlns:dc="http://purl.org/dc/elements/1.1/"
   xmlns:cc="http://creativecommons.org/ns#"
   xmlns:rdf="http://www.w3.org/1999/02/22-rdf-syntax-ns#"
   xmlns:svg="http://www.w3.org/2000/svg"
   xmlns="http://www.w3.org/2000/svg"
   xmlns:sodipodi="http://sodipodi.sourceforge.net/DTD/sodipodi-0.dtd"
   xmlns:inkscape="http://www.inkscape.org/namespaces/inkscape"
   enable-background="new 0 0 2376.4 1174.2"
   viewBox="0 0 1453.3001 1723.6594"
   version="1.1"
   id="svg16"
   sodipodi:docname="jee-2.svg"
   width="1453.3"
   height="1723.6593"
   inkscape:version="0.92.3 (2405546, 2018-03-11)">
  <metadata
     id="metadata22">
    <rdf:RDF>
      <cc:Work
         rdf:about="">
        <dc:format>image/svg+xml</dc:format>
        <dc:type
           rdf:resource="http://purl.org/dc/dcmitype/StillImage" />
      </cc:Work>
    </rdf:RDF>
  </metadata>
  <defs
     id="defs20" />
  <sodipodi:namedview
     pagecolor="#ffffff"
     bordercolor="#666666"
     borderopacity="1"
     objecttolerance="10"
     gridtolerance="10"
     guidetolerance="10"
     inkscape:pageopacity="0"
     inkscape:pageshadow="2"
     inkscape:window-width="1920"
     inkscape:window-height="962"
     id="namedview18"
     showgrid="false"
     inkscape:zoom="0.28951356"
     inkscape:cx="637.25417"
     inkscape:cy="835.51616"
     inkscape:window-x="1920"
     inkscape:window-y="26"
     inkscape:window-maximized="1"
     inkscape:current-layer="svg16" />
  <path
     d="m 572.67585,908 c 0,0 -44.80003,26.1 32,34.9 93,10.6 140.6,9.1 243.1,-10.3 0,0 27,16.9 64.7,31.5 -230,98.6 -520.40003,-5.6 -339.8,-56.1 z m -28.1,-128.5 c 0,0 -50.30003,37.2 26.5,45.2 99.4,10.3 177.9,11.1 313.7,-15 0,0 18.7,19 48.3,29.5 -277.8,81.2 -587.30003,6.3 -388.5,-59.7 z"
     id="path2"
     inkscape:connector-curvature="0"
     style="fill:#000000" />
  <path
     d="m 781.37585,561.4 c 56.7,65.2 -14.9,123.9 -14.9,123.9 0,0 143.8,-74.2 77.8,-167.2 -61.7,-86.7 -109,-129.7 147.1,-278.2 0,-0.1 -402,100.3 -210,321.5 z"
     id="path4"
     inkscape:connector-curvature="0"
     style="fill:#000000" />
  <path
     d="m 1085.3759,1003.1 c 0,0 33.2,27.4 -36.6,48.5 -132.70005,40.2 -552.20008,52.3 -668.80008,1.6 -41.9,-18.2 36.7,-43.5 61.4,-48.8 25.8,-5.6 40.5,-4.6 40.5,-4.6 -46.6,-32.8 -301.1,64.4 -129.3,92.3 468.70003,76 854.30008,-34.1 732.80008,-89 z M 594.27585,646.3 c 0,0 -213.40003,50.7 -75.60003,69.1 58.20003,7.8 174.20003,6 282.30003,-3.1 88.3,-7.4 177,-23.3 177,-23.3 0,0 -31.1,13.4 -53.7,28.7 -216.7,57 -635.40003,30.5 -514.80003,-27.8 101.9,-49.2 184.80003,-43.6 184.80003,-43.6 z m 382.8,214 c 220.30005,-114.4 118.40005,-224.4 47.30005,-209.6 -17.4001,3.6 -25.20005,6.8 -25.20005,6.8 0,0 6.49995,-10.1 18.79995,-14.5 140.7001,-49.4 248.8001,145.8 -45.39995,223.2 0.1,-0.2 3.5,-3.2 4.5,-5.9 z"
     id="path6"
     inkscape:connector-curvature="0"
     style="fill:#000000" />
  <path
     d="m 844.27585,0 c 0,0 122,122.1 -115.7,309.7 -190.60003,150.6 -43.5,236.4 -0.1,334.5 -111.3,-100.4 -192.90003,-188.8 -138.2,-271 80.4,-120.8 303.2,-179.4 254,-373.2 z"
     id="path8"
     inkscape:connector-curvature="0"
     style="fill:#000000" />
  <path
     d="M 1414.7001,1263.2593 H 1408.3 v -3.6 h 17.3001 v 3.6 h -6.4 v 18 h -4.5 z m 34.5999,0.9 -6.5,17.1 h -2.9 l -6.4,-17.1 h -0.1 v 17.1 h -4.2999 v -21.6 h 6.1999 l 5.9001,15.3 5.9,-15.3 h 6.2 v 21.6 h -4.1 z"
     id="path10"
     inkscape:connector-curvature="0"
     style="fill:#000000"
     sodipodi:nodetypes="cccccccccccccccccccccccc" />
  <path
     d="M 948.50005,1259.6593 H 1130.8 v 43.5 h -124.3 v 113.9 h 103.6001 v 41.5 H 1006.5 v 126.8 h 128.5001 v 43.1 H 948.50005 Z m 265.29995,0 h 182.3001 v 43.5 H 1271.8 v 113.9 h 103.6 v 41.5 h -103.6 v 126.8 h 128.5 v 43.1 h -186.5 z"
     id="path12"
     inkscape:connector-curvature="0"
     style="fill:#000000" />
  <path
     d="m 312.9,1564.5593 c -19.9,17.3 -41,27 -59.9,27 -27,0 -41.6,-16.2 -41.6,-42.1 0,-28.1 15.7,-48.6 78.3,-48.6 h 23.2 z m 55,62.1 v -192.2 c 0,-49.1 -28,-81.5 -95.5,-81.5 -39.4,0 -73.9,9.7 -102,22.1 l 8.1,34 c 22.1,-8.1 50.7,-15.7 78.8,-15.7 38.9,0 55.6,15.7 55.6,48.1 v 24.3 h -19.4 c -94.5,0 -137.1,36.6 -137.1,91.8 0,47.5 28.1,74.5 81,74.5 34,0 59.4,-14 83.1,-34.6 l 4.3,29.2 z m 183.70005,0 H 483 l -82.6,-268.8 h 59.9 l 51.3,165.2 11.4,49.6 c 25.90005,-71.8 44.20005,-144.7 53.40005,-214.8 h 58.3 c -15.6,88.5 -43.7,185.6 -83.1,268.8 z m 263.4,-62.1 c -20,17.3 -41.1,27 -60,27 -27,0 -41.6,-16.2 -41.6,-42.1 0,-28.1 15.7,-48.6 78.3,-48.6 h 23.2 z m 55,62.1 v -192.2 c 0,-49.1 -28.1,-81.5 -95.6,-81.5 -39.4,0 -74,9.7 -102.1,22.1 l 8.1,34 c 22.1,-8.1 50.8,-15.7 78.8,-15.7 38.9,0 55.6,15.7 55.6,48.1 v 24.3 h -19.4 c -94.5,0 -137.1,36.6 -137.1,91.8 0,47.5 28.1,74.5 81,74.5 34,0 59.4,-14 83.2,-34.6 l 4.3,29.2 z M 96,1672.3593 c -15.7,22.9 -41,41.1 -68.8,51.3 l -27.2,-32 c 21.1,-10.9 39.2,-28.3 47.6,-44.6 7.3,-14.5 10.3,-33.2 10.3,-77.8 v -307 h 58.5 v 302.7 c 0,59.7 -4.7,83.8 -20.4,107.4 z"
     id="path14"
     inkscape:connector-curvature="0"
     style="fill:#000000" />
  <path
     inkscape:connector-curvature="0"
     style="fill:#000000"
     d="m 615.66055,1170.2928 c 211.4,13.5 536.19995,-7.5 543.89995,-107.6 0,0 -14.7999,37.9 -174.69995,68 -180.5,34 -403.1,30 -535.10004,8.2 -0.1,0.1 27,22.4 165.90004,31.4 z"
     id="path10-3"
     sodipodi:nodetypes="ccccc" />
</svg>
